<svg width="1350" height="644" viewBox="0 0 1350 644" fill="none" xmlns="http://www.w3.org/2000/svg">
<g clip-path="url(#clip0_40_190)">
<rect width="1350" height="644" fill="#E6E6E6"/>
<path d="M138.352 94.2709L251.5 -7.76542L175.5 -7.76543C151.189 6.31244 159.086 -18.1957 143 -7.76542C126.915 2.66481 127 -0.999919 127 -0.999919C127 -0.999919 22.0001 60.0001 -1.99994 115.5C-25.9999 171 -0.431496 222.49 -5.99991 275C-4.42103 280.926 71.2869 310.668 77.0858 231.993C71.0262 155.519 120.02 109.547 138.352 94.2709Z" fill="url(#paint0_linear_40_190)" fill-opacity="0.7"/>
<path d="M1353.7 -6.91562L1361.04 270.027L1368 318.025C1364.47 366.229 1343.62 412.496 1333.64 429.605C1301.22 484.823 1244.81 481.376 1220.66 472.75C1184.08 460.872 1143.34 419.938 1196.79 307.97C1244.46 208.103 1251.62 41.3526 1208.81 -13.5755L1353.7 -6.91562Z" fill="url(#paint1_linear_40_190)" fill-opacity="0.8"/>
</g>
<defs>
<linearGradient id="paint0_linear_40_190" x1="62.4742" y1="281.522" x2="160.675" y2="-20.2024" gradientUnits="userSpaceOnUse">
<stop stop-color="#FEA50F"/>
<stop offset="0.581707" stop-color="#7F5A37"/>
<stop offset="1" stop-color="#364853"/>
</linearGradient>
<linearGradient id="paint1_linear_40_190" x1="1282.65" y1="474.231" x2="1210.48" y2="-26.4482" gradientUnits="userSpaceOnUse">
<stop stop-color="#FEA50F"/>
<stop offset="1" stop-color="#364853"/>
</linearGradient>
<clipPath id="clip0_40_190">
<rect width="1350" height="644" fill="white"/>
</clipPath>
</defs>
</svg>
