<svg width="1350" height="643" viewBox="0 0 1350 643" fill="none" xmlns="http://www.w3.org/2000/svg">
<g clip-path="url(#clip0_40_172)">
<rect width="1350" height="643" fill="#041A28"/>
<path d="M1.05558 661.95L-18.9909 385.637L-28.1415 338.008C-26.8336 289.693 -8.13186 242.517 1.05555 224.969C30.9035 168.32 87.4128 169.174 111.936 176.682C149.024 186.867 191.603 225.888 143.35 340.191C100.313 442.142 100.812 609.046 146.107 661.95L1.05558 661.95Z" fill="url(#paint0_linear_40_172)"/>
<path d="M1224 473.636L1099.5 641.5H1252.5C1283.5 607 1305.5 586.137 1350 518.137V128.636C1344.5 120.136 1219 99.6365 1250 226.136C1298.5 343.136 1245 440.303 1224 473.636Z" fill="url(#paint1_linear_40_172)"/>
</g>
<defs>
<linearGradient id="paint0_linear_40_172" x1="49.9399" y1="178.048" x2="145.028" y2="674.886" gradientUnits="userSpaceOnUse">
<stop stop-color="#FEA50F"/>
<stop offset="1" stop-color="#364853"/>
</linearGradient>
<linearGradient id="paint1_linear_40_172" x1="1247.7" y1="140.912" x2="1247.3" y2="664.776" gradientUnits="userSpaceOnUse">
<stop stop-color="#FEA50F"/>
<stop offset="0.581707" stop-color="#7F5A37"/>
<stop offset="1" stop-color="#364853"/>
</linearGradient>
<clipPath id="clip0_40_172">
<rect width="1350" height="643" fill="white"/>
</clipPath>
</defs>
</svg>
