<svg width="1350" height="644" viewBox="0 0 1350 644" fill="none" xmlns="http://www.w3.org/2000/svg">
<g clip-path="url(#clip0_40_206)">
<rect width="1350" height="644" transform="matrix(1 0 0 -1 0 644)" fill="#E6E6E6"/>
<path d="M138.352 549.729L251.5 651.766L175.5 651.766C151.189 637.688 159.086 662.196 143 651.766C126.915 641.335 127 645 127 645C127 645 22.0001 584 -1.99994 528.5C-25.9999 473 -0.431497 421.511 -5.99991 369C-4.42103 363.075 71.2869 333.332 77.0858 412.007C71.0262 488.481 120.02 534.453 138.352 549.729Z" fill="url(#paint0_linear_40_206)" fill-opacity="0.5"/>
<path d="M1353.7 650.916L1361.04 373.973L1368 325.975C1364.47 277.771 1343.62 231.504 1333.64 214.395C1301.22 159.177 1244.81 162.624 1220.66 171.25C1184.08 183.128 1143.34 224.062 1196.79 336.03C1244.46 435.897 1251.62 602.647 1208.81 657.576L1353.7 650.916Z" fill="url(#paint1_linear_40_206)" fill-opacity="0.5"/>
</g>
<defs>
<linearGradient id="paint0_linear_40_206" x1="62.4742" y1="362.478" x2="160.675" y2="664.203" gradientUnits="userSpaceOnUse">
<stop stop-color="#FEA50F"/>
<stop offset="0.581707" stop-color="#7F5A37"/>
<stop offset="1" stop-color="#364853"/>
</linearGradient>
<linearGradient id="paint1_linear_40_206" x1="1282.65" y1="169.769" x2="1210.48" y2="670.448" gradientUnits="userSpaceOnUse">
<stop stop-color="#FEA50F"/>
<stop offset="1" stop-color="#364853"/>
</linearGradient>
<clipPath id="clip0_40_206">
<rect width="1350" height="644" fill="white" transform="matrix(1 0 0 -1 0 644)"/>
</clipPath>
</defs>
</svg>
